<svg width="0" height="0" xmlns="http://www.w3.org/2000/svg" xmlns:xlink="http://www.w3.org/1999/xlink" style="display:none">
    <symbol id="search-icon" viewBox="0 0 24 24">
        <path fill="none" stroke="currentColor" stroke-linecap="round" stroke-linejoin="round" stroke-width="2" d="m20 20l-4.05-4.05m0 0a7 7 0 1 0-9.9-9.9a7 7 0 0 0 9.9 9.9z"/>
    </symbol> 
    <symbol id="locked" viewBox="0 0 24 24">
        <path fill="currentColor" d="M18 8H20C20.5523 8 21 8.44772 21 9V21C21 21.5523 20.5523 22 20 22H4C3.44772 22 3 21.5523 3 21V9C3 8.44772 3.44772 8 4 8H6V7C6 3.68629 8.68629 1 12 1C15.3137 1 18 3.68629 18 7V8ZM11 15.7324V18H13V15.7324C13.5978 15.3866 14 14.7403 14 14C14 12.8954 13.1046 12 12 12C10.8954 12 10 12.8954 10 14C10 14.7403 10.4022 15.3866 11 15.7324ZM16 8V7C16 4.79086 14.2091 3 12 3C9.79086 3 8 4.79086 8 7V8H16Z"></path>
    </symbol>
    <symbol id="vip" viewBox="0 0 24 24">
        <path fill="currentColor" d="M12 1a6 6 0 0 0-6 6v1H4a1 1 0 0 0-1 1v12a1 1 0 0 0 1 1h9.044A6 6 0 0 1 21 14.044V9a1 1 0 0 0-1-1h-2V7a6 6 0 0 0-6-6Zm4 7H8V7a4 4 0 1 1 8 0v1Zm5.145 15.14-.505-2.945 2.14-2.086-2.957-.43L18.5 15l-1.323 2.68-2.957.43 2.14 2.085-.505 2.946L18.5 21.75l2.645 1.39Z"/>
    </symbol>
    <symbol id="menu-icon" viewBox="0 0 24 24">
        <path d="M3 4H21V6H3V4ZM3 11H21V13H3V11ZM3 18H21V20H3V18Z"></path>
    </symbol>
    <symbol id="close-icon" viewBox="0 0 24 24">
        <path fill="currentColor" d="m12 10.586 4.95-4.95 1.415 1.415-4.95 4.95 4.95 4.95-1.415 1.414-4.95-4.95-4.95 4.95-1.413-1.415 4.95-4.95-4.95-4.95L7.05 5.638l4.95 4.95Z"/>
    </symbol>
    <symbol id="medal-icon" viewBox="0 0 24 24">
        <path fill="currentColor" d="M17 15.245v6.872a.5.5 0 0 1-.757.429L12 20l-4.243 2.546a.5.5 0 0 1-.757-.43v-6.87a8 8 0 1 1 10 0ZM12 15a6 6 0 1 0 0-12 6 6 0 0 0 0 12Zm0-2a4 4 0 1 1 0-8 4 4 0 0 1 0 8Z"/>
    </symbol>   
    <symbol id="website-icon" viewBox="0 0 24 24">
        <path d="M6.23509 6.45329C4.85101 7.89148 4 9.84636 4 12C4 16.4183 7.58172 20 12 20C13.0808 20 14.1116 19.7857 15.0521 19.3972C15.1671 18.6467 14.9148 17.9266 14.8116 17.6746C14.582 17.115 13.8241 16.1582 12.5589 14.8308C12.2212 14.4758 12.2429 14.2035 12.3636 13.3943L12.3775 13.3029C12.4595 12.7486 12.5971 12.4209 14.4622 12.1248C15.4097 11.9746 15.6589 12.3533 16.0043 12.8777C16.0425 12.9358 16.0807 12.9928 16.1198 13.0499C16.4479 13.5297 16.691 13.6394 17.0582 13.8064C17.2227 13.881 17.428 13.9751 17.7031 14.1314C18.3551 14.504 18.3551 14.9247 18.3551 15.8472V15.9518C18.3551 16.3434 18.3168 16.6872 18.2566 16.9859C19.3478 15.6185 20 13.8854 20 12C20 8.70089 18.003 5.8682 15.1519 4.64482C14.5987 5.01813 13.8398 5.54726 13.575 5.91C13.4396 6.09538 13.2482 7.04166 12.6257 7.11976C12.4626 7.14023 12.2438 7.12589 12.012 7.11097C11.3905 7.07058 10.5402 7.01606 10.268 7.75495C10.0952 8.2232 10.0648 9.49445 10.6239 10.1543C10.7134 10.2597 10.7307 10.4547 10.6699 10.6735C10.59 10.9608 10.4286 11.1356 10.3783 11.1717C10.2819 11.1163 10.0896 10.8931 9.95938 10.7412C9.64554 10.3765 9.25405 9.92233 8.74797 9.78176C8.56395 9.73083 8.36166 9.68867 8.16548 9.64736C7.6164 9.53227 6.99443 9.40134 6.84992 9.09302C6.74442 8.8672 6.74488 8.55621 6.74529 8.22764C6.74529 7.8112 6.74529 7.34029 6.54129 6.88256C6.46246 6.70541 6.35689 6.56446 6.23509 6.45329ZM12 22C6.47715 22 2 17.5228 2 12C2 6.47715 6.47715 2 12 2C17.5228 2 22 6.47715 22 12C22 17.5228 17.5228 22 12 22Z"></path>
    </symbol>
    <symbol id="left-arrow" viewBox="0 0 24 14">
        <path fill="currentColor" fill-rule="evenodd" d="m6.788 13.6 1.697-1.836-3.89-3.954H24V5.495H4.595l3.89-3.556L6.788.399 0 6.702 6.788 13.6Z" clip-rule="evenodd"/>
    </symbol>
    <symbol id="right-arrow" viewBox="0 0 24 14">
        <path fill="currentColor" fill-rule="evenodd" d="m17.212 13.6-1.697-1.836 3.89-3.954H0V5.495h19.405l-3.89-3.556 1.697-1.54L24 6.702 17.212 13.6Z" clip-rule="evenodd"/>
    </symbol> 
    <symbol id="twitter-icon" viewBox="0 0 24 24">
        <path fill="currentColor" d="M18.205 2.25h3.308l-7.227 8.26 8.502 11.24H16.13l-5.214-6.817L4.95 21.75H1.64l7.73-8.835L1.215 2.25H8.04l4.713 6.231 5.45-6.231Zm-1.161 17.52h1.833L7.045 4.126H5.078L17.044 19.77Z"/>
    </symbol>
    <symbol id="facebook-icon" viewBox="0 0 24 24">
        <path fill="currentColor" d="M12.001 2c-5.523 0-10 4.477-10 10 0 4.991 3.657 9.128 8.438 9.878v-6.987h-2.54V12h2.54V9.797c0-2.506 1.492-3.89 3.777-3.89 1.094 0 2.238.195 2.238.195v2.46h-1.26c-1.243 0-1.63.771-1.63 1.562V12h2.773l-.443 2.89h-2.33v6.988C18.343 21.128 22 16.991 22 12c0-5.523-4.477-10-10-10Z"/>
    </symbol>   
    <symbol id="whatsapp-icon" viewBox="0 0 28 28">
        <path fill="currentColor" d="M14.0007 2.33325C20.4439 2.33325 25.6673 7.55659 25.6673 13.9999C25.6673 20.4432 20.4439 25.6666 14.0007 25.6666C11.8611 25.6666 9.8561 25.0907 8.13218 24.0854L2.33886 25.6666L3.91615 19.87C2.91027 18.1458 2.33398 16.1402 2.33398 13.9999C2.33398 7.55659 7.55733 2.33325 14.0007 2.33325ZM9.79055 8.5263C9.63959 8.53691 9.49159 8.57378 9.35684 8.64271C9.25575 8.69443 9.1619 8.76918 9.01445 8.90842C8.8752 9.03989 8.79451 9.15472 8.70948 9.26542C8.27816 9.82699 8.04635 10.5163 8.05065 11.2244C8.053 11.7968 8.20168 12.3531 8.43648 12.8725C8.91263 13.9257 9.69787 15.0392 10.7351 16.0718C10.9843 16.3198 11.2284 16.5706 11.4916 16.8023C12.7789 17.9358 14.3131 18.7532 15.972 19.1895C15.972 19.1895 16.6253 19.2898 16.6349 19.2904C16.8513 19.3021 17.0674 19.2864 17.284 19.2754C17.6239 19.2579 17.9557 19.1659 18.256 19.006C18.4491 18.9032 18.5404 18.8521 18.7025 18.7499C18.7025 18.7499 18.7522 18.7163 18.8481 18.6449C19.0056 18.5275 19.1029 18.4449 19.2339 18.3089C19.3305 18.2086 19.4135 18.09 19.4777 17.9564C19.5689 17.766 19.6608 17.4026 19.6973 17.1008C19.7252 16.8703 19.7168 16.7443 19.7137 16.6662C19.7087 16.5407 19.605 16.4115 19.4914 16.3567L18.8129 16.0517C18.8129 16.0517 17.7985 15.6103 17.1781 15.3272C17.1135 15.2977 17.0428 15.2841 16.9717 15.2798C16.8161 15.2702 16.6417 15.3108 16.5307 15.4277C16.5249 15.4254 16.4476 15.4921 15.6036 16.5147C15.557 16.5703 15.4479 16.6913 15.2593 16.68C15.2308 16.678 15.2025 16.6739 15.1748 16.6667C15.0984 16.6465 15.024 16.6199 14.9512 16.5891C14.8068 16.5279 14.7562 16.5046 14.6576 16.4622C13.9841 16.1679 13.366 15.7743 12.8197 15.2926C12.6731 15.1636 12.5369 15.0246 12.3964 14.8885C11.9062 14.4133 11.5048 13.9079 11.2062 13.4094C11.1899 13.3822 11.1648 13.3429 11.1378 13.2989C11.0889 13.2194 11.035 13.1249 11.0181 13.0601C10.9748 12.8884 11.0898 12.7505 11.0898 12.7505C11.0898 12.7505 11.3738 12.4401 11.5057 12.2713C11.6327 12.1088 11.7422 11.9499 11.812 11.8366C11.9494 11.6156 11.993 11.3873 11.9207 11.2112C11.5934 10.4132 11.2557 9.61951 10.9077 8.83035C10.839 8.67461 10.6347 8.56146 10.4489 8.54C10.3859 8.53273 10.323 8.52543 10.2599 8.52128C10.1035 8.51365 9.94674 8.51533 9.79055 8.5263Z" />
    </symbol>
    <symbol id="rss-icon" viewBox="0 0 24 24">
        <path fill="currentColor" d="M3 3c9.941 0 18 8.059 18 18h-3c0-8.284-6.716-15-15-15V3Zm0 7c6.075 0 11 4.925 11 11h-3a8 8 0 0 0-8-8v-3Zm0 7a4 4 0 0 1 4 4H3v-4Z"/>
    </symbol>
    <symbol id="email-icon" viewBox="0 0 24 24">
        <path fill="currentColor" fill-rule="evenodd" d="M7 2.75c-1.615 0-3.075.404-4.135 1.388C1.795 5.132 1.25 6.607 1.25 8.5v7c0 1.893.545 3.369 1.615 4.362 1.06.984 2.52 1.388 4.135 1.388h10c1.615 0 3.075-.404 4.135-1.388 1.07-.993 1.615-2.469 1.615-4.362v-7c0-1.893-.545-3.368-1.615-4.362-1.06-.984-2.52-1.388-4.135-1.388H7Zm12.229 5.612a.75.75 0 0 0-.918-1.187l-5.547 4.287a1.25 1.25 0 0 1-1.528 0L5.689 7.175a.75.75 0 1 0-.918 1.187l5.548 4.287a2.75 2.75 0 0 0 3.362 0l5.548-4.287Z" clip-rule="evenodd"/>
    </symbol>  
</svg>